<?xml version="1.0" standalone="no"?>
<!DOCTYPE svg PUBLIC "-//W3C//DTD SVG 20010904//EN"
 "http://www.w3.org/TR/2001/REC-SVG-20010904/DTD/svg10.dtd">
<svg version="1.0" xmlns="http://www.w3.org/2000/svg"
 width="163.000000pt" height="163.000000pt" viewBox="0 0 163.000000 163.000000"
 preserveAspectRatio="xMidYMid meet">
<metadata>
Created by potrace 1.10, written by Peter Selinger 2001-2011
</metadata>
<g transform="translate(0.000000,163.000000) scale(0.100000,-0.100000)"
fill="#000000" stroke="none">
<path d="M685 1559 c-84 -12 -200 -53 -275 -97 -80 -46 -223 -187 -269 -264
-105 -180 -138 -409 -86 -603 39 -145 145 -307 263 -401 53 -42 224 -134 249
-134 30 0 43 32 43 107 l0 75 -49 -7 c-55 -7 -122 7 -164 37 -15 11 -41 46
-57 78 -17 33 -47 73 -70 91 -45 36 -48 45 -21 54 33 10 75 -15 141 -85 49
-52 74 -70 101 -75 42 -8 119 10 119 28 0 7 9 30 20 52 25 48 25 45 -4 45 -13
0 -52 9 -87 20 -148 46 -220 147 -227 315 -5 98 5 144 42 205 17 28 21 52 22
125 1 121 5 129 62 121 25 -3 73 -21 108 -40 57 -32 65 -34 105 -24 59 14 244
13 295 -1 38 -10 45 -9 118 29 45 24 91 40 111 40 33 0 34 -2 46 -56 9 -40 10
-69 3 -104 -9 -43 -8 -50 13 -76 41 -51 56 -117 51 -219 -10 -185 -101 -293
-277 -328 -31 -6 -57 -12 -58 -12 -2 -1 6 -19 17 -40 17 -34 20 -59 20 -187 0
-148 0 -148 24 -160 21 -9 38 -4 118 35 286 140 457 431 435 741 -32 455 -434
780 -882 715z"/>
<path d="M303 463 c4 -3 10 -3 14 0 3 4 0 7 -7 7 -7 0 -10 -3 -7 -7z"/>
<path d="M335 430 c3 -5 8 -10 11 -10 2 0 4 5 4 10 0 6 -5 10 -11 10 -5 0 -7
-4 -4 -10z"/>
<path d="M365 390 c3 -5 8 -10 11 -10 2 0 4 5 4 10 0 6 -5 10 -11 10 -5 0 -7
-4 -4 -10z"/>
<path d="M400 350 c0 -5 5 -10 10 -10 6 0 10 5 10 10 0 6 -4 10 -10 10 -5 0
-10 -4 -10 -10z"/>
<path d="M450 320 c0 -5 7 -10 16 -10 8 0 12 5 9 10 -3 6 -10 10 -16 10 -5 0
-9 -4 -9 -10z"/>
<path d="M576 321 c-4 -5 -2 -12 3 -15 5 -4 12 -2 15 3 4 5 2 12 -3 15 -5 4
-12 2 -15 -3z"/>
<path d="M515 310 c-3 -5 1 -10 9 -10 9 0 16 5 16 10 0 6 -4 10 -9 10 -6 0
-13 -4 -16 -10z"/>
</g>
</svg>
