<?xml version="1.0" standalone="no"?>
<!DOCTYPE svg PUBLIC "-//W3C//DTD SVG 20010904//EN"
 "http://www.w3.org/TR/2001/REC-SVG-20010904/DTD/svg10.dtd">
<svg version="1.0" xmlns="http://www.w3.org/2000/svg"
 width="852.000000pt" height="157.000000pt" viewBox="0 0 852.000000 157.000000"
 preserveAspectRatio="xMidYMid meet">
<metadata>
Created by potrace 1.14, written by Peter Selinger 2001-2017
</metadata>
<g transform="translate(0.000000,157.000000) scale(0.100000,-0.100000)"
fill="#000000" stroke="none">
<path d="M620 1401 c-73 -28 -103 -47 -159 -97 -97 -87 -142 -180 -158 -324
l-8 -74 -73 -3 c-84 -3 -106 -12 -132 -56 -25 -41 -25 -74 0 -115 24 -38 57
-53 125 -57 89 -4 85 -2 85 -42 0 -56 25 -163 49 -215 49 -102 164 -203 276
-239 197 -64 403 7 520 180 54 80 73 135 79 227 2 38 5 73 5 77 1 4 52 6 114
5 l112 -3 7 -70 c13 -139 45 -211 135 -301 58 -58 114 -92 203 -124 39 -14
427 -27 484 -16 51 10 96 60 96 109 0 43 -21 86 -54 108 -16 10 -77 16 -246
20 -124 3 -237 10 -253 14 -45 12 -111 95 -126 157 -7 29 -11 66 -9 81 l3 29
455 -1 455 -1 7 -61 c14 -124 28 -168 78 -242 62 -92 144 -155 260 -197 50
-18 455 -26 504 -10 53 17 76 52 76 114 0 45 -4 56 -31 82 l-30 29 -232 5
c-261 6 -282 11 -337 81 -34 42 -63 126 -58 167 l3 27 453 5 c250 3 456 2 459
-3 2 -4 6 -102 8 -218 5 -232 7 -242 68 -280 37 -23 74 -19 118 11 43 31 51
78 48 289 -2 102 0 191 3 197 10 15 177 17 251 3 87 -17 151 -60 182 -123 23
-45 25 -62 25 -170 0 -141 13 -178 72 -209 32 -16 43 -17 73 -7 20 7 47 24 60
38 24 26 25 31 25 175 0 136 -2 154 -26 213 -14 36 -24 71 -21 78 4 10 37 13
139 11 l133 -1 5 -220 c5 -229 9 -248 52 -276 42 -28 68 -31 107 -13 64 28 65
36 71 284 l5 223 225 1 225 1 5 -216 c6 -242 8 -252 82 -293 35 -19 37 -19 78
0 70 31 70 33 70 277 l0 218 24 10 c14 5 65 7 113 5 l88 -3 8 -54 c24 -172 51
-231 146 -325 95 -95 192 -136 321 -136 108 0 196 31 285 101 102 79 175 224
175 348 0 73 -14 65 125 69 44 1 86 -3 93 -8 9 -7 12 -62 12 -216 0 -233 5
-252 75 -285 34 -16 61 -18 259 -13 205 5 299 16 322 40 4 4 13 7 21 7 20 0
91 48 144 98 25 23 58 67 73 98 25 51 27 63 23 142 -3 48 -7 98 -8 111 -4 23
-2 24 76 28 44 2 92 9 107 14 64 25 79 119 29 179 l-29 35 -93 1 c-81 1 -94 3
-97 19 -2 9 1 22 7 28 19 19 13 170 -9 221 -40 94 -150 186 -270 225 -57 19
-87 21 -307 21 -338 0 -323 14 -323 -302 0 -114 -3 -208 -7 -209 -13 -2 -104
-2 -165 0 l-58 1 0 218 c0 229 -2 242 -50 279 -22 18 -97 16 -126 -3 -53 -35
-54 -44 -54 -439 0 -234 -4 -382 -11 -410 -33 -130 -193 -203 -316 -144 -53
26 -110 90 -123 140 -6 22 -11 204 -13 424 l-2 387 -33 29 c-55 49 -146 36
-180 -25 -14 -25 -18 -70 -22 -245 l-5 -215 -105 3 c-58 1 -108 5 -112 7 -5 3
-8 104 -8 225 l0 221 -29 29 c-52 52 -144 35 -184 -34 -8 -15 -14 -92 -17
-235 l-5 -214 -215 0 c-118 0 -221 1 -227 1 -10 1 -13 51 -13 217 0 223 -3
243 -44 276 -27 22 -99 23 -132 2 -50 -33 -54 -56 -54 -284 0 -180 -2 -210
-15 -211 -8 0 -70 -1 -137 -1 -130 -1 -141 3 -119 45 33 65 41 113 41 249 0
144 -6 169 -44 200 -27 23 -99 23 -133 1 -42 -27 -53 -70 -53 -198 0 -125 -9
-157 -66 -224 -32 -38 -65 -56 -119 -65 -51 -9 -264 -11 -271 -3 -3 3 -7 102
-8 219 -1 229 -7 256 -53 277 -35 16 -91 13 -124 -6 -48 -29 -54 -58 -52 -273
1 -108 -1 -201 -6 -208 -6 -10 -107 -13 -462 -13 l-454 0 -3 30 c-5 45 25 132
58 173 57 69 93 78 319 78 109 0 212 3 230 6 88 18 119 133 54 198 l-26 26
-247 0 c-282 0 -305 -4 -410 -74 -55 -37 -89 -71 -127 -128 -53 -78 -68 -127
-85 -286 l-3 -22 -445 0 c-245 -1 -451 0 -457 0 -8 0 -13 14 -13 36 0 97 51
184 133 223 40 19 61 21 250 21 226 0 259 6 290 53 10 15 17 46 17 72 0 38 -5
52 -29 76 l-29 29 -243 0 c-148 0 -257 -4 -278 -11 -116 -35 -243 -138 -290
-232 -28 -58 -50 -147 -51 -204 0 -23 -2 -47 -5 -55 -4 -11 -88 -13 -450 -12
-244 1 -451 4 -459 7 -42 17 13 181 77 229 56 43 89 48 299 48 218 0 250 6
282 55 35 53 18 142 -30 164 -17 7 -106 11 -267 10 -204 -1 -249 -4 -287 -18z
m7206 -238 c97 -47 120 -112 63 -177 -53 -61 -77 -68 -254 -75 -88 -4 -163 -5
-167 -3 -5 2 -8 66 -8 143 l0 139 156 0 c148 0 158 -1 210 -27z m-6838 -550
c3 -63 -5 -87 -55 -150 -41 -51 -109 -77 -187 -71 -102 8 -168 66 -201 175
-19 64 -19 90 -1 100 8 4 111 7 228 6 l213 -2 3 -58z m6771 52 c174 -30 217
-179 71 -248 -38 -18 -70 -22 -203 -27 -87 -3 -161 -3 -163 -1 -5 6 -5 276 0
282 7 7 249 3 295 -6z"/>
</g>
</svg>
