<?xml version="1.0" standalone="no"?>
<!DOCTYPE svg PUBLIC "-//W3C//DTD SVG 20010904//EN"
 "http://www.w3.org/TR/2001/REC-SVG-20010904/DTD/svg10.dtd">
<svg version="1.0" xmlns="http://www.w3.org/2000/svg"
 width="300.000000pt" height="213.000000pt" viewBox="0 0 300.000000 213.000000"
 preserveAspectRatio="xMidYMid meet">
<metadata>
Created by potrace 1.10, written by Peter Selinger 2001-2011
</metadata>
<g transform="translate(0.000000,213.000000) scale(0.100000,-0.100000)"
fill="#000000" stroke="none">
<path d="M147 1982 c-16 -17 -17 -95 -17 -919 0 -859 1 -901 18 -916 17 -16
125 -17 1354 -17 1281 0 1336 1 1351 18 16 17 17 95 17 919 0 859 -1 901 -18
916 -17 16 -125 17 -1354 17 -1281 0 -1336 -1 -1351 -18z m2403 -106 c0 -4
-854 -686 -965 -770 -64 -49 -107 -49 -170 0 -114 86 -965 766 -965 770 0 2
473 4 1050 4 578 0 1050 -2 1050 -4z m-1433 -698 c144 -115 278 -215 297 -223
45 -19 127 -19 172 0 19 8 153 108 297 223 144 115 396 315 560 445 l297 237
0 -805 0 -805 -1240 0 -1240 0 0 805 0 805 298 -237 c163 -130 415 -330 559
-445z"/>
</g>
</svg>
